# xmcd CD database file
#
# Track frame offsets:
#	150
#	17951
#	30099
#	41551
#	58527
#	75207
#	93210
#	106414
#	114698
#	128321
#	139793
#	158007
#	177036
#	193789
#	212078
#
# Disc length: 2936 seconds
#
# Revision: 0
# Processed by: cddbd v1.5.2PL0 Copyright (c) Steve Scherf et al.
# Submitted via: CDex 1.51
#
DISCID=b10b760f
DTITLE=Archimia - Tacchino Latino
DYEAR=2006
DGENRE=Jazz
TTITLE0=Il Tacchino Latino
TTITLE1=The Ballade of M and G
TTITLE2=Libertango
TTITLE3=Dreaming Rio
TTITLE4=Smoke on The Water
TTITLE5=Una Lunga Storia d'Amore
TTITLE6=Por Una Cabeza
TTITLE7=One Step Beyond
TTITLE8=Fusion Quartet
TTITLE9=The Blues Rabbit
TTITLE10=Adios Nonino
TTITLE11=Fuga Y Misterio
TTITLE12=The Place Where We will Meet Again
TTITLE13=Ritmos De Malambo
TTITLE14=When The Saints Go Marching In
EXTD=YEAR: 2006
EXTT0=
EXTT1=
EXTT2=
EXTT3=
EXTT4=
EXTT5=
EXTT6=
EXTT7=
EXTT8=
EXTT9=
EXTT10=
EXTT11=
EXTT12=
EXTT13=
EXTT14=
PLAYORDER=
